<svg width="96" height="96" viewBox="0 0 480 480" fill="none" xmlns="http://www.w3.org/2000/svg">
<rect width="96" height="96" fill="#D9D9D9"/>
<g filter="url(#filter0_d_9_3)">
<path d="M136 163.6V185.6C159.2 161.067 177.067 140.267 189.6 123.2C202.4 106.133 210.133 94 212.8 86.8C215.733 79.6 217.2 72.4 217.2 65.2C217.2 57.7333 214.933 51.7333 210.4 47.2L212 41.6C220.267 42.6667 232 43.2 247.2 43.2C262.667 43.2 278.267 42.1333 294 40L295.6 50C283.6 53.7333 270.8 56.5333 257.2 58.4C254.8 81.0667 235.333 109.867 198.8 144.8L265 303.6C275.4 326 281.733 336.697 294 342.297C298.8 342.297 307.067 359.467 314 356C320.933 352.533 320.8 374.05 329 356C336.2 360.8 337.2 345.889 346 348.556C346.8 350.156 360.4 334.933 360.4 337.6C360.4 340.533 358.133 343.2 353.6 345.6C349.333 348.267 343.2 349.6 335.2 349.6C318.4 349.6 298.533 344.933 275.6 335.6C252.933 326.267 237.2 316.667 228.4 306.8C222.533 280.933 216 258.4 208.8 239.2C201.6 220 190.667 195.6 176 166C161.067 179.6 147.733 191.2 136 200.8C136.8 241.333 138.533 270.933 141.2 289.6C155.333 290.933 170 293.467 185.2 297.2L184 306.8C164.267 304.667 142.8 303.6 119.6 303.6C96.6667 303.6 78.1333 304.667 64 306.8L62.4 296.8C74.4 293.067 87.2 290.267 100.8 288.4C103.733 266.533 105.2 232.133 105.2 185.2V161.6C105.2 126.667 103.733 94.5333 100.8 65.2H100.4C68.9333 65.2 48.8 69.4667 40 78C38.1333 81.7333 37.2 87.6 37.2 95.6C37.2 103.6 38.5333 109.067 41.2 112L40.8 114.8C34.1333 118.8 27.4667 124.4 20.8 131.6C17.6 131.333 15.0667 130 13.2 127.6C11.0667 125.2 10 122.4 10 119.2C10 106.133 17.8667 90.5333 33.6 72.4C49.3333 54.2667 64 42.8 77.6 38C79.7333 38 89.3333 38.9333 106.4 40.8C123.467 42.4 136.8 43.2 146.4 43.2C156.267 43.2 165.333 42.4 173.6 40.8L175.2 50.8C164.8 54.8 152.933 58.4 139.6 61.6C137.2 86.1333 136 120.133 136 163.6Z" fill="black"/>
<path d="M275.412 336.063C281.781 338.655 287.917 340.889 293.82 342.765L293.891 342.797H293.923C294.403 342.949 294.881 343.099 295.358 343.247C295.462 343.307 295.568 343.373 295.677 343.445C296.335 343.881 297.052 344.511 297.822 345.28C298.805 346.261 299.835 347.426 300.915 348.646C301.537 349.349 302.176 350.071 302.831 350.786C304.6 352.718 306.473 354.585 308.363 355.747C310.258 356.913 312.269 357.424 314.224 356.447C314.988 356.065 315.608 356.045 316.143 356.22C316.698 356.402 317.222 356.813 317.739 357.405C318.255 357.995 318.731 358.725 319.205 359.497C319.323 359.691 319.442 359.887 319.561 360.085C319.909 360.661 320.26 361.241 320.614 361.753C321.086 362.436 321.609 363.068 322.215 363.443C322.858 363.841 323.589 363.946 324.381 363.581C325.127 363.238 325.885 362.496 326.696 361.325C327.452 360.236 328.284 358.731 329.218 356.723C329.983 357.159 330.706 357.394 331.398 357.447C332.243 357.513 333.004 357.305 333.696 356.925C335.034 356.193 336.165 354.788 337.261 353.427L337.289 353.392C338.351 352.073 339.404 350.767 340.652 349.87C342.513 349.704 344.253 349.446 345.869 349.097C345.891 349.108 345.914 349.118 345.938 349.127C346.096 349.185 346.251 349.18 346.372 349.161C346.609 349.123 346.86 349.005 347.098 348.869C347.156 348.835 347.215 348.799 347.277 348.761C349.799 348.1 351.992 347.192 353.85 346.034C358.41 343.616 360.9 340.824 360.9 337.6C360.9 337.47 360.88 337.316 360.804 337.17C360.721 337.011 360.586 336.891 360.414 336.83C360.122 336.726 359.818 336.826 359.619 336.91C359.176 337.098 358.593 337.508 357.951 338.021C356.645 339.063 354.904 340.681 353.159 342.313L352.829 342.621C351.184 344.159 349.555 345.683 348.267 346.76C347.718 347.22 347.246 347.585 346.87 347.833C346.59 347.905 346.306 347.974 346.017 348.04C343.723 347.381 341.898 347.848 340.369 348.851C340.346 348.866 340.323 348.882 340.3 348.897C338.698 349.032 336.998 349.1 335.2 349.1C323.553 349.1 310.407 346.845 295.757 342.323C295.213 342.022 294.662 341.824 294.115 341.8C282.102 336.277 275.84 325.759 265.458 303.398C265.456 303.395 265.455 303.392 265.454 303.389L199.393 144.924C217.554 127.536 231.498 111.654 241.214 97.28C250.861 83.0082 256.36 70.1925 257.654 58.842C271.135 56.9721 283.834 54.1843 295.749 50.4774L296.162 50.3488L296.094 49.921L294.494 39.921L294.417 39.4389L293.933 39.5045C278.221 41.6349 262.644 42.7 247.2 42.7C232.007 42.7 220.299 42.1667 212.064 41.1041L211.637 41.0491L211.519 41.4626L209.919 47.0626L209.838 47.3455L210.046 47.5536C214.471 51.9777 216.7 57.8424 216.7 65.2C216.7 72.3303 215.248 79.4664 212.337 86.6113L212.334 86.6188L212.331 86.6263C209.693 93.7481 202.005 105.826 189.2 122.9L189.197 122.904C176.837 139.735 159.273 160.214 136.5 184.343V163.6C136.5 120.348 137.688 86.4851 140.063 62.0029C153.272 58.8197 165.045 55.2414 175.379 51.2667L175.758 51.1212L175.694 50.721L174.094 40.721L174.012 40.211L173.505 40.3091C165.274 41.9021 156.24 42.7 146.4 42.7C136.824 42.7 123.51 41.9018 106.451 40.3026C89.4073 38.4385 79.7686 37.5 77.6 37.5H77.5144L77.4336 37.5285C63.7145 42.3706 48.979 53.9121 33.2223 72.0723C17.4687 90.2291 9.5 105.946 9.5 119.2C9.5 122.518 10.6083 125.431 12.8154 127.92C14.7722 130.429 17.4337 131.821 20.7585 132.098L21.0013 132.119L21.1669 131.94C27.8094 124.766 34.4401 119.199 41.0572 115.229L41.2613 115.106L41.295 114.871L41.695 112.071L41.7283 111.838L41.57 111.664C39.0387 108.879 37.7 103.584 37.7 95.6C37.7 87.6746 38.6214 81.9298 40.4095 78.2997C44.7165 74.1585 51.821 71.0047 61.8037 68.8891C71.8122 66.7681 84.6566 65.7024 100.347 65.7C103.249 94.8926 104.7 126.859 104.7 161.6V185.2C104.7 231.861 103.25 266.107 100.355 287.957C86.8703 289.827 74.169 292.615 62.2515 296.323L61.8378 296.451L61.9063 296.879L63.5063 306.879L63.5846 307.368L64.0746 307.294C78.1731 305.166 96.6787 304.1 119.6 304.1C142.785 304.1 164.233 305.166 183.946 307.297L184.435 307.35L184.496 306.862L185.696 297.262L185.751 296.821L185.319 296.714C170.239 293.01 155.679 290.485 141.64 289.14C139.014 270.521 137.301 241.158 136.505 201.033C148.072 191.562 161.186 180.156 175.846 166.816C190.361 196.141 201.188 220.326 208.332 239.376C215.522 258.549 222.049 281.06 227.912 306.911L227.941 307.036L228.027 307.133C236.904 317.086 252.723 326.721 275.41 336.062L275.412 336.063Z" stroke="black"/>
</g>
<g filter="url(#filter1_d_9_3)">
<path d="M326.2 342C338.733 342 351.8 338.267 365.4 330.8V298C365.4 291.867 364.867 282.933 363.8 271.2C354.467 268.533 342.333 265.867 327.4 263.2L328.6 254.8C334.733 255.6 340.6 256 346.2 256C369.667 256 391.133 249.467 410.6 236.4L414.2 243.6C408.067 248.4 403.267 253.2 399.8 258C394.733 304.4 392.067 347.733 391.8 388C384.067 402.133 371.267 415.733 353.4 428.8C335.8 441.867 319.667 448.4 305 448.4C301 448.4 297.667 447.333 295 445.2C292.333 443.067 291 440.133 291 436.4C298.733 430.533 305.267 423.733 310.6 416L313.4 415.6C319.267 420.133 326.067 422.4 333.8 422.4C341.533 422.4 346.867 421.6 349.8 420C360.733 405.333 366.2 381.333 366.2 348C351.533 359.467 335.267 368.267 317.4 374.4C285.4 374.4 261.267 364.4 245 344.4C229 324.133 221 296.267 221 260.8C221 225.067 230.733 192 250.2 161.6C269.933 130.933 296.333 111.067 329.4 102C357.133 102 385 104.533 413 109.6L412.6 118.4C405.933 118.4 399.533 119.6 393.4 122C386.2 138.8 381.8 157.6 380.2 178.4H370.2C367.8 167.467 366.6 155.067 366.6 141.2C354.067 134.267 338.733 130.8 320.6 130.8C302.467 130.8 287.933 135.333 277 144.4C263.4 167.6 256.6 197.067 256.6 232.8C256.6 305.6 279.8 342 326.2 342Z" fill="black"/>
<path d="M365.698 349.023C351.199 360.218 335.153 368.834 317.562 374.873L317.483 374.9H317.4C285.289 374.9 260.996 364.86 244.612 344.715L244.608 344.71C228.516 324.327 220.5 296.338 220.5 260.8C220.5 224.97 230.261 191.81 249.779 161.33L249.78 161.329C269.575 130.566 296.074 110.619 329.268 101.518L329.333 101.5H329.4C357.164 101.5 385.06 104.036 413.089 109.108L413.519 109.186L413.499 109.623L413.099 118.423L413.078 118.9H412.6C406.066 118.9 399.792 120.063 393.777 122.39C386.65 139.084 382.289 157.765 380.699 178.438L380.663 178.9H380.2H370.2H369.798L369.712 178.507C367.319 167.609 366.117 155.271 366.1 141.496C353.706 134.707 338.546 131.3 320.6 131.3C302.588 131.3 288.2 135.792 277.387 144.729C263.874 167.819 257.1 197.166 257.1 232.8C257.1 269.163 262.897 296.35 274.422 314.431C285.922 332.475 303.155 341.5 326.2 341.5C338.552 341.5 351.45 337.845 364.9 330.504V298C364.9 291.949 364.379 283.148 363.333 271.587C354.067 268.958 342.061 266.326 327.312 263.692L326.837 263.607L326.905 263.129L328.105 254.729L328.175 254.24L328.665 254.304C334.779 255.102 340.624 255.5 346.2 255.5C369.568 255.5 390.937 248.996 410.321 235.985L410.793 235.668L411.047 236.176L414.647 243.376L414.83 243.742L414.508 243.994C408.447 248.738 403.709 253.469 400.283 258.186C395.227 304.522 392.566 347.794 392.3 388.003L392.299 388.129L392.239 388.24C384.46 402.457 371.6 416.109 353.696 429.203C353.695 429.203 353.695 429.203 353.695 429.204L365.698 349.023ZM365.698 349.023C365.587 381.725 360.145 405.22 349.465 419.612L365.698 349.023Z" stroke="black"/>
</g>
<defs>
<filter id="filter0_d_9_3" x="5" y="37" width="360.4" height="335.305" filterUnits="userSpaceOnUse" color-interpolation-filters="sRGB">
<feFlood flood-opacity="0" result="BackgroundImageFix"/>
<feColorMatrix in="SourceAlpha" type="matrix" values="0 0 0 0 0 0 0 0 0 0 0 0 0 0 0 0 0 0 127 0" result="hardAlpha"/>
<feOffset dy="4"/>
<feGaussianBlur stdDeviation="2"/>
<feComposite in2="hardAlpha" operator="out"/>
<feColorMatrix type="matrix" values="0 0 0 0 0 0 0 0 0 0 0 0 0 0 0 0 0 0 0.25 0"/>
<feBlend mode="normal" in2="BackgroundImageFix" result="effect1_dropShadow_9_3"/>
<feBlend mode="normal" in="SourceGraphic" in2="effect1_dropShadow_9_3" result="shape"/>
</filter>
<filter id="filter1_d_9_3" x="216" y="101" width="203.46" height="356.4" filterUnits="userSpaceOnUse" color-interpolation-filters="sRGB">
<feFlood flood-opacity="0" result="BackgroundImageFix"/>
<feColorMatrix in="SourceAlpha" type="matrix" values="0 0 0 0 0 0 0 0 0 0 0 0 0 0 0 0 0 0 127 0" result="hardAlpha"/>
<feOffset dy="4"/>
<feGaussianBlur stdDeviation="2"/>
<feComposite in2="hardAlpha" operator="out"/>
<feColorMatrix type="matrix" values="0 0 0 0 0 0 0 0 0 0 0 0 0 0 0 0 0 0 0.25 0"/>
<feBlend mode="normal" in2="BackgroundImageFix" result="effect1_dropShadow_9_3"/>
<feBlend mode="normal" in="SourceGraphic" in2="effect1_dropShadow_9_3" result="shape"/>
</filter>
</defs>
</svg>
